<?xml version="1.0" standalone="no"?>
<!DOCTYPE svg PUBLIC "-//W3C//DTD SVG 20010904//EN"
 "http://www.w3.org/TR/2001/REC-SVG-20010904/DTD/svg10.dtd">
<svg version="1.0" xmlns="http://www.w3.org/2000/svg"
 width="1024.000000pt" height="1024.000000pt" viewBox="0 0 1024.000000 1024.000000"
 preserveAspectRatio="xMidYMid meet">

<g transform="translate(0.000000,1024.000000) scale(0.100000,-0.100000)"
fill="#005700" stroke="none">
<path d="M1640 9203 c-36 -10 -101 -17 -185 -19 -123 -2 -134 -4 -192 -33 -62
-30 -75 -44 -50 -54 10 -4 10 -6 0 -6 -26 -2 -14 -46 16 -59 16 -7 42 -24 57
-38 16 -13 39 -27 52 -30 44 -12 21 -22 -41 -17 -51 4 -70 2 -103 -16 -48 -25
-74 -45 -74 -57 0 -5 -11 -22 -24 -39 -16 -19 -21 -34 -15 -45 4 -8 13 -29 20
-47 14 -35 66 -54 81 -31 7 12 12 3 9 -16 -4 -18 33 -46 61 -46 15 0 28 -4 28
-9 0 -5 18 -12 40 -16 44 -7 60 -22 39 -36 -10 -6 -6 -9 13 -9 15 0 30 -4 33
-10 3 -5 15 -10 26 -10 11 0 18 -4 15 -9 -3 -4 6 -6 19 -3 15 2 25 0 25 -7 0
-7 4 -10 9 -7 11 7 111 -22 129 -37 8 -6 54 -12 105 -14 105 -3 137 -10 116
-25 -10 -7 -5 -8 15 -3 17 3 32 2 36 -5 3 -5 31 -17 61 -24 48 -13 56 -13 71
1 15 14 24 14 90 -2 77 -18 317 -47 329 -39 4 2 13 -4 20 -12 12 -15 10 -16
-16 -10 -47 9 -159 26 -170 25 -5 0 13 -7 40 -15 28 -8 100 -17 162 -21 62 -3
110 -9 107 -14 -2 -4 10 -10 28 -12 18 -3 -5 -4 -52 -2 -128 5 -412 47 -455
66 -11 5 -31 9 -45 8 -29 -3 -148 16 -235 36 -33 8 -105 24 -160 35 -55 11
-147 35 -205 51 -154 45 -148 45 -155 17 -3 -13 -1 -37 6 -53 7 -17 12 -33 11
-37 -1 -3 5 -9 14 -12 10 -4 13 -2 8 7 -6 9 -4 9 7 1 8 -6 37 -14 64 -18 28
-3 55 -12 60 -19 14 -17 84 -40 118 -39 21 0 27 -3 23 -14 -4 -10 3 -14 26
-14 17 0 39 -7 49 -16 13 -12 25 -13 52 -6 32 9 34 8 29 -11 -4 -16 -2 -19 13
-14 9 4 23 3 30 -3 7 -6 30 -12 52 -14 21 -1 48 -8 60 -15 12 -6 26 -11 30
-10 4 1 10 0 13 -1 11 -4 48 -9 112 -16 37 -4 65 -10 63 -14 -3 -5 4 -6 15 -3
11 3 41 0 66 -7 25 -7 70 -13 100 -14 41 0 54 -4 55 -16 0 -8 3 -10 5 -4 3 8
21 8 57 2 29 -5 86 -11 128 -13 41 -2 94 -8 116 -14 22 -6 69 -8 104 -5 80 7
127 7 141 -3 7 -3 33 -5 60 -4 55 3 88 -5 88 -22 0 -7 -3 -8 -10 -1 -6 6 -35
7 -78 3 -135 -15 -405 -10 -559 11 -431 59 -583 87 -732 135 -62 20 -115 34
-118 31 -9 -9 6 -38 17 -31 5 3 10 1 10 -4 0 -6 10 -11 23 -11 17 0 19 -2 8
-9 -27 -17 -22 -41 7 -40 28 2 130 -45 147 -67 6 -7 34 -15 63 -17 29 -3 58
-9 65 -15 6 -5 32 -12 56 -15 24 -3 48 -10 54 -16 9 -9 4 -9 -18 -2 -46 14
-194 24 -172 11 9 -6 17 -17 17 -24 0 -28 30 -43 97 -48 18 -2 33 -6 33 -10 0
-13 319 -40 456 -39 49 0 118 -4 154 -10 73 -11 590 -18 590 -7 0 8 111 16
125 9 17 -9 48 -12 118 -12 37 0 67 -3 67 -8 0 -21 -723 -34 -1035 -18 -164 8
-369 29 -464 47 -79 15 -104 13 -63 -5 17 -8 32 -18 32 -23 0 -12 49 -12 56
-1 9 16 24 10 17 -7 -5 -15 -1 -16 31 -10 l38 7 -34 -31 -33 -32 34 6 c24 4
37 2 45 -9 12 -17 51 -21 109 -12 23 4 35 2 32 -4 -4 -5 6 -8 24 -7 16 1 28 5
25 9 -7 12 29 20 40 9 7 -7 6 -10 -2 -10 -7 0 -12 -5 -12 -11 0 -6 12 -1 28
11 l27 22 3 -21 c4 -22 17 -28 27 -11 3 5 13 6 22 3 11 -4 14 -3 9 5 -4 7 -2
12 3 12 6 0 11 -4 11 -10 0 -5 10 -10 23 -10 18 0 19 -2 7 -10 -13 -9 -13 -10
0 -10 8 0 30 4 48 9 23 7 30 7 26 -1 -7 -11 14 -8 63 8 14 5 15 4 4 -4 -12 -9
-9 -12 13 -18 16 -4 31 -3 35 2 3 6 17 10 31 10 14 1 49 6 79 13 30 6 56 9 58
7 8 -8 -226 -76 -268 -78 -26 -1 -12 -4 36 -7 44 -3 81 -3 83 1 2 5 21 5 43 2
25 -4 39 -3 39 4 0 7 12 9 33 6 24 -4 28 -3 17 5 -9 7 -10 11 -3 11 6 0 15 -5
18 -10 5 -8 11 -7 20 0 10 9 19 9 32 0 15 -9 14 -10 -7 -5 l-25 7 22 -16 c20
-15 26 -15 50 -3 44 23 105 31 114 16 4 -8 3 -19 -3 -26 -19 -24 7 -13 44 17
28 23 42 29 55 22 19 -9 98 -8 139 2 17 5 24 2 24 -8 0 -13 4 -13 27 -1 17 9
44 12 76 9 44 -4 49 -3 37 11 -11 13 -9 14 19 9 20 -4 43 0 67 11 19 9 37 15
39 13 2 -2 -31 -21 -75 -42 -70 -34 -108 -66 -79 -66 6 0 8 -4 5 -8 -2 -4 -1
-14 4 -22 5 -9 5 -19 -2 -27 -8 -10 -6 -13 6 -13 9 0 16 -5 16 -11 0 -6 6 -9
14 -6 7 3 18 1 24 -5 6 -6 15 -2 26 13 20 29 21 14 2 -24 -14 -26 -14 -27 4
-17 11 6 24 18 29 28 9 16 11 16 25 -3 9 -13 11 -25 5 -37 -16 -29 -11 -43 9
-25 25 23 35 21 22 -3 -9 -16 -8 -20 5 -20 20 0 45 24 45 42 0 10 3 9 10 -2 8
-12 13 -13 29 -3 15 10 21 10 25 0 3 -9 9 -7 18 5 19 23 41 8 33 -23 -4 -18 0
-30 14 -43 15 -13 21 -15 21 -6 0 7 2 11 5 8 3 -3 1 -17 -5 -32 -6 -18 -6 -25
0 -21 10 6 14 -15 10 -45 -1 -8 -11 -25 -23 -37 -23 -26 -7 -32 18 -7 23 23
31 9 16 -29 -23 -57 -25 -71 -11 -62 10 6 11 -1 7 -31 -4 -21 -4 -33 -1 -26 3
6 12 12 20 12 12 0 12 -4 4 -20 -8 -15 -8 -20 1 -20 6 0 9 -9 6 -20 -6 -24 5
-26 23 -5 7 8 17 12 22 9 5 -3 9 0 7 7 -1 8 -1 23 0 34 1 16 3 17 10 5 6 -8 7
-28 4 -45 -8 -39 -3 -34 40 47 35 66 167 248 167 230 0 -9 -37 -61 -51 -72 -3
-3 -14 -20 -23 -37 -9 -18 -21 -33 -27 -33 -6 0 -7 -5 -4 -10 4 -6 12 -7 18
-3 7 4 7 1 -1 -9 -8 -10 -20 -14 -29 -11 -13 5 -15 1 -9 -23 4 -16 14 -34 23
-41 10 -8 13 -20 9 -37 -3 -15 -3 -26 0 -26 13 0 104 74 104 85 0 5 5 3 10 -5
8 -13 11 -12 24 5 25 32 18 10 -14 -50 -37 -69 -38 -83 -3 -50 32 29 43 31 43
10 0 -21 26 -19 42 4 7 10 21 17 31 15 10 -1 17 4 17 14 0 13 2 14 8 4 5 -7
16 -10 25 -6 9 3 15 10 12 14 -3 4 3 14 12 21 13 11 17 12 21 1 3 -10 8 -9 23
4 21 19 26 4 7 -18 -14 -15 -38 -55 -38 -63 0 -3 10 -4 23 -2 18 2 23 -4 25
-30 2 -18 -4 -43 -12 -55 -20 -29 -22 -55 -3 -39 19 15 51 -21 44 -48 -3 -14
0 -19 13 -18 10 1 17 4 15 7 -2 3 2 18 9 34 l12 30 13 -32 c16 -38 28 -41 37
-7 8 32 30 32 38 0 6 -24 7 -25 31 -9 19 12 24 22 20 43 -5 25 -4 25 9 -4 12
-26 12 -35 0 -64 -20 -48 -18 -49 20 -12 l34 33 8 -23 c4 -13 7 -37 6 -54 l-2
-30 25 28 c24 26 55 37 55 17 0 -5 7 -7 15 -4 9 4 15 19 16 38 0 17 7 47 14
66 13 34 13 33 10 -32 -3 -63 5 -86 19 -55 3 6 4 1 1 -13 -5 -29 9 -58 19 -41
14 22 26 11 16 -14 -11 -29 -4 -31 28 -9 12 8 22 10 22 5 0 -6 -4 -11 -9 -11
-5 0 -11 -9 -14 -19 -3 -14 0 -19 13 -18 12 1 16 7 12 17 -4 11 0 11 16 -4 12
-10 33 -18 46 -18 16 0 23 -5 19 -12 -3 -6 10 5 30 23 30 29 37 32 37 16 0
-10 3 -15 6 -12 14 14 44 -15 44 -41 0 -26 3 -27 47 -27 37 0 50 4 58 20 5 11
19 21 30 23 49 7 65 13 65 27 0 9 9 15 23 15 25 0 59 25 75 55 10 17 11 16 8
-13 -3 -25 -1 -30 9 -22 7 6 11 22 9 38 -4 27 -4 27 6 -3 7 -23 6 -33 -7 -47
-9 -10 -13 -21 -9 -26 4 -4 16 4 27 17 13 16 24 21 36 16 10 -5 26 -7 36 -6
20 3 25 -35 5 -41 -7 -3 -6 -7 5 -11 13 -5 17 -1 17 17 0 20 16 36 36 36 12 0
2 -30 -13 -39 -10 -6 -13 -11 -6 -11 6 0 15 5 18 10 3 6 10 10 16 10 5 0 -3
-18 -17 -40 -15 -22 -24 -43 -20 -47 3 -3 7 -4 9 -2 2 2 15 19 30 37 l27 34 1
-29 0 -28 16 23 c16 23 47 30 58 12 20 -32 56 53 54 128 0 26 -1 26 -9 5 -9
-23 -45 -37 -77 -31 -10 2 -30 26 -45 53 -29 54 -49 153 -29 141 6 -4 14 0 17
8 3 9 11 16 18 16 15 1 51 28 45 35 -3 2 -23 -7 -45 -22 -21 -15 -33 -19 -26
-10 15 18 13 53 -3 50 -6 -1 -17 4 -25 10 -13 10 -13 10 -1 -5 11 -15 10 -22
-6 -49 -24 -43 -37 -46 -69 -14 -21 21 -29 24 -35 13 -7 -10 -9 -9 -9 4 0 9
-5 18 -12 20 -7 3 -8 9 -3 18 6 10 11 9 22 -6 13 -17 14 -15 7 21 -4 22 -12
43 -17 47 -8 4 -7 15 1 33 7 14 12 35 12 46 0 12 5 19 11 17 12 -4 12 -8 3
-55 -8 -40 3 -86 17 -77 6 3 8 20 5 37 -5 27 -5 29 4 10 12 -29 30 -30 22 -1
-3 14 -2 19 6 14 8 -4 12 0 12 11 0 21 -20 56 -20 36 0 -7 -4 -13 -10 -13 -5
0 -10 9 -10 20 0 11 -9 25 -20 32 -11 7 -20 21 -20 30 0 10 -3 18 -8 18 -4 0
-16 15 -26 34 -14 27 -16 38 -6 55 6 12 15 19 21 16 20 -13 8 13 -13 29 -23
15 -23 16 -4 31 25 19 11 33 -16 16 -19 -12 -24 -11 -40 9 -10 12 -18 17 -18
11 0 -6 -5 -11 -11 -11 -6 0 -9 9 -6 20 3 11 -3 43 -12 70 -17 49 -18 50 -29
25 -6 -14 -16 -25 -22 -25 -13 0 -13 6 1 33 6 12 -2 7 -19 -13 -17 -19 -31
-29 -32 -22 0 6 -11 12 -25 12 -26 0 -45 25 -45 60 0 12 -4 19 -9 16 -4 -3 -6
5 -4 17 3 14 -2 29 -11 36 -14 12 -16 10 -16 -8 0 -18 -3 -20 -19 -11 -17 8
-20 6 -26 -18 -3 -16 -1 -40 4 -54 11 -28 -2 -49 -29 -47 -10 0 -9 3 5 9 16 7
17 9 3 9 -17 1 -21 10 -33 69 -4 20 -3 32 4 32 10 0 16 -34 12 -66 -1 -7 6
-15 15 -18 12 -5 15 -2 10 10 -3 8 -6 29 -6 45 0 22 -6 30 -25 35 -18 4 -26
15 -31 40 -3 19 -10 34 -15 34 -5 0 -6 13 -3 29 5 24 1 35 -21 56 -18 15 -35
23 -46 20 -10 -3 -38 7 -67 25 -27 16 -58 30 -69 30 -32 0 -108 80 -148 157
-35 68 -96 135 -170 186 -23 17 -25 21 -12 35 8 10 12 23 10 30 -3 7 5 12 21
12 38 0 32 15 -14 30 -32 10 -42 11 -55 0 -8 -7 -15 -17 -15 -22 0 -7 5 -7 13
0 7 6 18 8 24 4 7 -5 3 -13 -12 -25 -27 -19 -33 -14 -45 39 -4 19 -4 34 2 36
5 2 -20 32 -56 66 -35 34 -88 92 -118 128 -29 36 -70 75 -90 85 -45 23 -49 39
-11 39 21 0 24 3 15 12 -22 22 -13 29 15 11 l26 -17 -28 -12 -28 -11 25 -6
c14 -4 33 -19 43 -33 l17 -26 19 21 c16 17 24 19 46 10 15 -6 30 -14 33 -19 3
-5 19 -10 36 -12 24 -2 29 -6 29 -27 0 -16 6 -27 18 -29 10 -2 17 3 17 13 0 9
5 13 10 10 14 -9 12 -21 -5 -38 -13 -13 -12 -17 9 -30 13 -9 31 -23 40 -33 9
-9 20 -13 24 -9 4 4 -3 14 -15 22 -13 9 -23 21 -23 28 0 8 -6 16 -12 18 -10 4
-9 8 2 16 19 13 41 -5 33 -26 -5 -13 -2 -15 15 -11 18 5 22 2 22 -18 0 -25 15
-33 23 -11 3 8 7 6 12 -6 4 -9 35 -45 69 -80 33 -34 79 -85 101 -112 22 -28
46 -54 53 -58 6 -4 12 -17 12 -28 0 -12 8 -23 19 -26 12 -3 17 -11 14 -19 -3
-9 2 -14 15 -14 13 0 28 -12 39 -30 9 -16 21 -30 26 -30 14 0 51 -39 44 -47
-4 -3 -7 -1 -7 5 0 7 -5 12 -11 12 -22 0 11 -27 39 -33 19 -4 35 -18 50 -46
13 -23 24 -41 25 -41 2 0 3 9 3 19 0 11 -3 18 -7 15 -6 -3 -19 19 -19 32 0 12
32 1 47 -15 9 -11 21 -17 26 -14 6 3 7 1 3 -5 -8 -13 24 -32 53 -32 13 0 21
-7 21 -17 0 -15 2 -16 10 -3 8 12 10 11 10 -6 0 -11 7 -29 15 -40 14 -19 15
-19 21 4 9 30 15 28 46 -18 20 -29 35 -40 53 -40 15 0 24 4 20 10 -13 21 7 9
41 -24 20 -20 42 -32 50 -29 9 3 14 -1 14 -12 0 -13 6 -16 25 -11 30 8 40 -1
78 -64 26 -43 31 -45 28 -8 -2 12 4 15 21 11 29 -8 58 -37 58 -60 0 -14 2 -15
9 -4 7 11 11 10 20 -5 9 -13 14 -15 17 -6 11 24 26 12 20 -15 -5 -20 -4 -24 3
-13 6 8 11 12 13 10 16 -26 28 -52 28 -65 0 -8 7 -15 15 -15 8 0 15 -5 15 -11
0 -6 13 -24 29 -40 24 -23 30 -26 35 -13 3 9 6 88 5 177 -1 125 -3 154 -11
127 -5 -19 -13 -39 -18 -43 -12 -13 -48 1 -54 21 -7 19 -54 44 -68 36 -5 -4
-7 -18 -4 -33 6 -26 6 -26 -7 -3 -7 12 -16 19 -20 16 -4 -4 -7 -3 -7 3 0 5
-35 27 -77 48 -43 21 -85 42 -93 46 -8 5 -35 18 -60 29 -25 12 -68 32 -96 46
-28 13 -54 24 -58 24 -3 0 -29 15 -56 33 -27 17 -88 57 -135 87 -47 30 -85 58
-85 62 0 5 -5 8 -11 8 -20 0 -236 205 -262 249 -9 14 -41 52 -71 84 -31 33
-56 63 -56 68 0 5 -6 9 -13 9 -7 0 -26 13 -43 28 -72 69 -194 162 -212 162
-12 0 -25 6 -29 13 -10 16 -120 85 -185 116 -27 13 -50 27 -54 32 -3 5 -12 9
-20 9 -9 0 -71 27 -139 60 -68 33 -128 60 -133 60 -6 0 -13 -8 -15 -17 -4 -15
-5 -15 -6 2 -1 17 -16 24 -83 43 -46 12 -102 22 -125 22 -38 0 -43 -3 -43 -22
0 -13 9 -38 20 -56 11 -18 20 -33 20 -35 0 -5 -174 2 -207 8 -46 10 -94 7
-110 -7 -7 -6 -23 -8 -36 -4 -64 16 -246 36 -279 31 -26 -5 -50 0 -84 14 -25
12 -61 21 -79 21 -18 0 -50 6 -71 14 -22 7 -110 24 -198 37 -141 20 -159 21
-167 7 -7 -13 -17 -13 -77 -2 -37 7 -131 15 -207 18 -77 3 -192 7 -255 10 -90
5 -127 2 -170 -11z m677 -125 c-3 -8 -6 -5 -6 6 -1 11 2 17 5 13 3 -3 4 -12 1
-19z m-904 -135 c-7 -2 -21 -2 -30 0 -10 3 -4 5 12 5 17 0 24 -2 18 -5z m162
-24 c44 -6 87 -15 95 -20 9 -6 -2 -7 -30 -3 -84 12 -193 34 -199 40 -3 4 8 4
24 1 17 -4 66 -12 110 -18z m833 -4 c-3 -3 -9 2 -12 12 -6 14 -5 15 5 6 7 -7
10 -15 7 -18z m46 -34 c-2 -3 -12 3 -22 13 -16 17 -16 18 5 5 12 -7 20 -15 17
-18z m-640 -6 c45 -7 66 -13 48 -14 -49 -2 -172 21 -172 31 0 5 10 6 22 2 12
-3 58 -12 102 -19z m2201 16 c3 -5 1 -12 -5 -16 -5 -3 -10 1 -10 9 0 18 6 21
15 7z m-957 -56 c-3 -3 -9 2 -12 12 -6 14 -5 15 5 6 7 -7 10 -15 7 -18z m-993
5 l20 -9 -20 1 c-11 0 -31 4 -45 8 l-25 8 25 0 c14 0 34 -3 45 -8z m692 -6
c-3 -3 -12 -4 -19 -1 -8 3 -5 6 6 6 11 1 17 -2 13 -5z m-630 -10 c-3 -3 -12
-4 -19 -1 -8 3 -5 6 6 6 11 1 17 -2 13 -5z m70 -20 c-3 -3 -12 -4 -19 -1 -8 3
-5 6 6 6 11 1 17 -2 13 -5z m98 -14 c3 -5 -1 -10 -9 -10 -9 0 -16 5 -16 10 0
6 4 10 9 10 6 0 13 -4 16 -10z m-765 -40 c52 -16 112 -30 133 -30 21 0 37 -5
37 -11 0 -7 11 -9 30 -5 17 3 29 2 26 -2 -2 -4 14 -8 37 -10 22 -1 55 -11 71
-22 17 -10 74 -26 126 -35 52 -8 151 -29 220 -45 69 -16 177 -36 240 -44 l115
-15 -130 5 c-71 3 -159 12 -195 21 -36 8 -96 20 -135 27 -86 16 -226 55 -241
67 -7 6 -16 9 -20 7 -18 -4 -420 105 -433 118 -11 11 32 1 119 -26z m954 14
c3 -8 2 -12 -4 -9 -6 3 -10 10 -10 16 0 14 7 11 14 -7z m627 -11 c13 -15 12
-15 -8 -4 -24 12 -29 21 -14 21 5 0 15 -7 22 -17z m-533 -34 c26 -7 52 -16 58
-21 6 -4 30 -9 53 -11 22 -1 41 -6 41 -10 0 -12 -72 1 -149 28 -73 26 -74 31
-3 14z m641 -46 c47 -32 95 -66 106 -76 11 -10 35 -25 53 -34 18 -9 31 -17 29
-20 -8 -8 -194 109 -260 164 -50 40 -17 25 72 -34z m-372 -29 c-3 -3 -12 -4
-19 -1 -8 3 -5 6 6 6 11 1 17 -2 13 -5z m-1144 -131 c-13 -2 -35 -2 -50 0 -16
2 -5 4 22 4 28 0 40 -2 28 -4z m1849 -85 c15 -16 44 -38 65 -49 23 -12 28 -17
13 -13 -51 14 -131 89 -129 122 0 12 4 10 12 -7 6 -13 23 -37 39 -53z m-1004
-65 c-10 -2 -28 -2 -40 0 -13 2 -5 4 17 4 22 1 32 -1 23 -4z m252 -23 c-34
-11 -60 -11 -35 0 11 5 29 8 40 8 16 0 15 -2 -5 -8z m123 3 c-18 -2 -48 -2
-65 0 -18 2 -4 4 32 4 36 0 50 -2 33 -4z m107 -13 c12 -8 11 -10 -7 -10 -13 0
-23 5 -23 10 0 13 11 13 30 0z m519 -204 c70 -25 72 -43 2 -19 -58 20 -106 52
-125 84 -25 42 -19 42 22 -2 25 -27 57 -47 101 -63z m-402 7 c11 -13 22 -21
24 -19 2 2 24 0 49 -4 l45 -7 -44 -2 c-37 -1 -42 -3 -31 -16 11 -13 8 -15 -16
-15 -22 0 -26 3 -14 10 9 6 10 10 3 10 -23 0 -83 72 -83 99 l0 26 24 -30 c13
-16 33 -40 43 -52z m198 -23 c-3 -5 -13 -10 -21 -10 -8 0 -12 5 -9 10 3 6 13
10 21 10 8 0 12 -4 9 -10z m587 -34 c7 4 8 2 4 -4 -8 -13 23 -61 40 -62 6 0
18 -7 25 -17 13 -15 11 -15 -19 1 -34 18 -73 70 -71 96 1 11 3 10 6 -3 2 -9 9
-14 15 -11z m-923 -2 c9 -8 -75 -2 -94 6 -13 6 -1 7 35 3 30 -3 57 -7 59 -9z
m648 10 c-3 -3 -12 -4 -19 -1 -8 3 -5 6 6 6 11 1 17 -2 13 -5z m743 -63 c-1
-13 -29 45 -29 59 0 8 6 0 14 -19 8 -18 15 -36 15 -40z m-2290 39 c12 -8 11
-10 -7 -10 -13 0 -23 5 -23 10 0 13 11 13 30 0z m330 -30 c0 -6 -27 -10 -62
-9 -45 0 -57 3 -43 9 28 12 105 12 105 0z m-393 -6 c-3 -3 -12 -4 -19 -1 -8 3
-5 6 6 6 11 1 17 -2 13 -5z m241 -1 c-10 -2 -26 -2 -35 0 -10 3 -2 5 17 5 19
0 27 -2 18 -5z m1356 -63 c-1 -42 2 -50 15 -45 8 3 12 3 9 -1 -8 -8 6 -23 45
-49 21 -13 46 -18 100 -17 53 0 64 -2 42 -8 -44 -11 -130 -12 -160 0 -38 15
-75 59 -75 91 0 25 15 79 22 79 2 0 3 -23 2 -50z m-1086 33 c-16 -2 -40 -2
-55 0 -16 2 -3 4 27 4 30 0 43 -2 28 -4z m1525 -30 c-7 -2 -19 -2 -25 0 -7 3
-2 5 12 5 14 0 19 -2 13 -5z m134 -95 c-3 -7 -5 -2 -5 12 0 14 2 19 5 13 2 -7
2 -19 0 -25z m312 -18 c0 -10 -3 -8 -9 5 -12 27 -12 43 0 25 5 -8 9 -22 9 -30z
m-292 -52 c-3 -8 -6 -5 -6 6 -1 11 2 17 5 13 3 -3 4 -12 1 -19z m579 -28 c7 0
16 -4 19 -10 10 -15 -28 1 -42 18 -7 9 -13 23 -12 31 1 9 6 4 12 -11 6 -16 16
-28 23 -28z m-552 -16 c3 -9 3 -20 0 -25 -3 -5 4 -26 16 -46 27 -46 19 -55 -9
-10 -25 40 -38 97 -23 97 5 0 13 -7 16 -16z m-398 -52 c7 -15 17 -26 21 -25 5
0 7 -3 6 -8 -2 -5 0 -9 5 -10 4 0 19 -2 34 -3 25 -1 63 -35 52 -45 -5 -6 -97
30 -110 43 -21 21 -34 55 -33 83 1 18 3 21 6 10 3 -10 11 -30 19 -45z m691
-24 c-3 -8 -6 -5 -6 6 -1 11 2 17 5 13 3 -3 4 -12 1 -19z m620 -10 c-3 -7 -5
-2 -5 12 0 14 2 19 5 13 2 -7 2 -19 0 -25z m-150 5 c0 -8 -6 -9 -19 -2 -10 5
-18 11 -18 12 0 2 8 3 18 3 10 0 19 -6 19 -13z m-932 -33 c-8 -14 -67 -20 -83
-9 -15 9 -15 10 1 5 24 -8 69 3 61 15 -3 5 2 6 10 3 9 -3 14 -10 11 -14z m484
-25 c0 -5 -4 -3 -9 5 -5 8 -9 22 -9 30 0 16 17 -16 18 -35z m-224 25 c19 -8
19 -9 -2 -9 -12 -1 -25 4 -28 9 -7 12 2 12 30 0z m1016 -33 c-6 -6 -11 -28
-11 -50 0 -34 -2 -37 -15 -23 -19 18 -19 21 2 74 13 36 18 41 26 27 6 -11 5
-21 -2 -28z m-54 1 c-3 -8 -6 -5 -6 6 -1 11 2 17 5 13 3 -3 4 -12 1 -19z
m-918 -9 c-8 -5 -9 -9 -4 -9 6 0 19 -25 28 -56 10 -31 26 -69 37 -84 27 -38
25 -44 -5 -18 -39 33 -58 69 -66 118 -7 49 -2 73 13 64 6 -4 5 -10 -3 -15z
m232 -24 c31 -17 37 -24 21 -22 -12 1 -34 11 -50 24 -36 29 -24 29 29 -2z
m154 -98 c1 -24 8 -53 14 -66 7 -12 10 -25 7 -28 -11 -11 -36 66 -36 108 0 54
13 42 15 -14z m439 17 c3 -8 2 -12 -4 -9 -6 3 -10 10 -10 16 0 14 7 11 14 -7z
m-685 -65 c-14 -27 1 -79 26 -89 12 -5 35 -20 50 -34 15 -14 35 -26 44 -26 10
0 22 -5 28 -11 7 -7 22 -8 49 0 21 6 40 9 42 6 7 -7 -72 -25 -109 -25 -55 0
-139 68 -162 133 -4 9 -3 17 2 17 14 0 20 39 7 44 -6 2 -1 3 11 3 17 -1 20 -5
12 -18z m733 -83 c-3 -13 -1 -17 6 -12 7 4 12 2 12 -5 0 -7 7 -21 17 -31 14
-16 14 -18 0 -18 -19 0 -57 59 -57 89 0 18 2 20 13 9 8 -7 12 -21 9 -32z
m-362 16 c0 -5 -9 -17 -20 -27 -11 -10 -20 -13 -20 -7 0 7 -4 12 -10 12 -25 0
-6 -20 33 -33 41 -15 41 -15 11 -16 -18 -1 -38 7 -48 18 -15 16 -15 22 -4 40
12 20 58 30 58 13z m-1040 -52 c0 -5 -5 -10 -11 -10 -5 0 -7 5 -4 10 3 6 8 10
11 10 2 0 4 -4 4 -10z m1266 -28 c-4 -3 -14 2 -24 12 -16 18 -16 18 6 6 13 -6
21 -14 18 -18z m-808 -31 c-6 -22 -16 -42 -24 -45 -17 -6 -17 -4 -5 26 5 13
12 31 15 41 11 36 24 16 14 -22z m781 -161 c17 -30 58 -70 72 -70 6 0 17 -7
25 -15 36 -36 -35 -4 -78 35 -27 24 -48 85 -47 132 l2 43 6 -50 c4 -27 13 -61
20 -75z m246 44 c-4 -29 -3 -44 3 -40 5 3 12 -3 15 -14 3 -11 12 -20 21 -20 9
0 16 -4 16 -10 0 -5 7 -10 15 -10 8 0 15 5 15 11 0 8 4 8 15 -1 8 -6 23 -9 34
-5 10 3 22 2 25 -4 3 -5 18 -8 32 -6 l25 2 -21 -22 c-12 -13 -33 -26 -46 -29
-37 -10 -97 10 -128 43 -29 30 -51 97 -35 107 5 3 9 14 9 25 0 10 3 19 6 19 4
0 3 -21 -1 -46z m-605 -14 c8 0 8 -6 0 -20 -9 -16 -8 -18 5 -14 8 4 15 11 15
18 0 6 5 4 10 -4 5 -8 10 -19 10 -25 0 -5 -5 -3 -10 5 -11 17 -13 10 -4 -14 3
-9 10 -13 15 -10 5 3 6 -1 3 -9 -8 -22 -43 -8 -59 24 -8 15 -15 43 -14 61 0
30 1 31 9 11 5 -13 14 -23 20 -23z m742 -21 c15 -10 0 -29 -17 -22 -10 3 -15
18 -14 42 0 34 1 34 10 11 6 -13 15 -27 21 -31z m-962 -74 c0 -5 -5 -3 -10 5
-5 8 -10 20 -10 25 0 6 5 3 10 -5 5 -8 10 -19 10 -25z"/>
<path d="M5502 7020 c14 -22 24 -19 15 5 -4 8 -11 15 -17 15 -6 0 -6 -7 2 -20z"/>
<path d="M4260 8711 c0 -5 7 -14 16 -21 12 -11 18 -10 31 3 9 9 13 20 9 24 -4
4 -11 1 -15 -6 -6 -9 -11 -10 -15 -2 -8 13 -26 15 -26 2z"/>
<path d="M4706 8251 c-4 -6 -3 -11 3 -11 5 0 12 -8 15 -17 4 -10 15 -29 26
-43 16 -20 20 -22 20 -7 0 9 -8 25 -19 36 -10 10 -23 27 -28 36 -7 12 -12 14
-17 6z"/>
<path d="M5070 8021 c0 -6 4 -13 10 -16 6 -3 7 1 4 9 -7 18 -14 21 -14 7z"/>
<path d="M6000 7916 c0 -13 115 -123 145 -139 33 -17 153 -43 161 -35 3 3 -26
14 -63 24 -67 18 -125 47 -160 81 -46 45 -83 76 -83 69z"/>
<path d="M6210 7847 c14 -8 41 -17 60 -21 l35 -6 -35 14 c-19 7 -46 16 -60 20
l-25 7 25 -14z"/>
<path d="M6150 7815 c14 -8 32 -14 40 -14 8 0 0 6 -19 14 -42 19 -54 19 -21 0z"/>
<path d="M6318 7813 c7 -3 16 -2 19 1 4 3 -2 6 -13 5 -11 0 -14 -3 -6 -6z"/>
<path d="M6225 7790 c19 -8 73 -14 64 -6 -2 2 -22 6 -44 9 -28 5 -34 4 -20 -3z"/>
<path d="M5931 7648 c-23 -186 -30 -220 -50 -253 -13 -23 -16 -35 -8 -38 8 -2
5 -13 -8 -33 -11 -16 -24 -38 -30 -49 -6 -10 -21 -23 -35 -27 -14 -4 4 -5 40
-2 58 4 63 3 47 -10 -11 -8 -14 -17 -8 -20 10 -7 35 14 59 50 7 10 2 -1 -11
-26 -14 -25 -27 -70 -31 -100 -6 -57 -4 -55 29 20 l15 35 -4 -60 c-3 -33 -2
-52 0 -42 3 9 9 17 14 17 5 0 13 12 19 28 11 27 11 27 6 -5 -3 -18 -7 -48 -10
-65 l-5 -33 11 30 c5 17 18 73 29 125 14 76 18 86 19 52 1 -57 -20 -182 -30
-182 -5 0 -9 -7 -9 -15 0 -8 -4 -15 -9 -15 -5 0 -11 -7 -15 -15 -8 -21 21 -5
53 29 23 25 97 53 108 42 3 -3 -10 -11 -28 -19 -19 -8 -49 -26 -66 -41 -27
-22 -32 -33 -29 -59 5 -33 -18 -82 -33 -72 -5 2 -14 -2 -21 -10 -7 -8 -9 -15
-5 -15 4 0 1 -8 -6 -17 -8 -9 -9 -14 -2 -10 6 4 14 1 16 -5 4 -10 6 -10 6 0 1
6 5 12 10 12 5 0 7 -8 5 -17 -7 -24 11 -98 22 -96 5 1 8 -41 6 -95 -2 -73 0
-93 9 -82 8 12 9 7 5 -20 -4 -20 -3 -30 3 -25 13 15 51 123 51 146 0 11 5 17
10 14 6 -3 10 -21 10 -39 0 -41 29 -126 42 -126 8 0 9 35 5 108 -3 59 -3 100
-1 92 3 -8 9 -24 14 -35 5 -11 13 -36 19 -55 10 -32 141 -254 141 -238 0 4
-13 43 -30 88 -59 161 -76 300 -45 385 l14 40 1 -81 c0 -99 22 -225 54 -320
13 -39 27 -108 31 -155 13 -161 22 -173 17 -24 -2 89 -14 211 -28 300 -24 152
-28 210 -15 255 5 17 10 -5 15 -70 4 -52 11 -113 16 -135 5 -22 14 -62 20 -90
6 -27 20 -93 32 -145 20 -92 47 -147 107 -220 20 -24 11 -2 -65 167 -33 74
-45 122 -49 203 -5 97 13 336 27 363 8 16 7 17 -11 7 -27 -14 -41 -6 -34 21 4
13 8 16 13 10 9 -15 42 -2 33 13 -4 8 -2 7 7 -1 24 -22 31 -158 16 -284 -9
-68 6 -145 25 -134 5 4 9 1 9 -5 0 -6 5 -8 11 -4 7 4 28 -11 50 -36 43 -48 45
-47 25 7 -18 46 -53 183 -72 278 l-13 70 5 -60 c3 -33 3 -57 -1 -53 -3 3 -10
49 -13 102 -8 102 0 120 32 74 9 -12 16 -17 16 -11 0 26 -13 43 -34 43 -12 0
-27 10 -34 21 -13 20 -12 21 12 15 20 -5 24 -3 20 9 -4 8 -18 15 -34 15 -16 0
-32 5 -36 11 -5 8 6 9 36 4 24 -4 59 -8 79 -10 20 -2 50 -7 66 -12 17 -5 41
-6 55 -2 l25 7 -27 2 c-30 3 -35 4 -58 12 -32 13 -108 27 -177 34 -108 10 -90
26 25 22 l97 -3 -45 42 c-82 75 -126 176 -155 346 -5 31 -12 41 -39 52 -54 23
-126 -2 -121 -40 1 -13 -2 -29 -6 -37 -7 -10 -9 -9 -9 5 0 9 -4 17 -9 17 -5 0
-12 8 -14 18 -4 13 -5 12 -6 -5 -2 -40 35 -120 69 -150 22 -20 28 -30 17 -30
-9 0 -15 3 -14 6 1 3 -2 7 -6 8 -13 3 -65 72 -73 96 -4 12 -13 27 -20 34 -7 7
-16 35 -21 61 l-8 47 -6 -45 -6 -45 -1 42 c-1 23 -5 50 -9 60 -6 14 -9 11 -14
-17 -5 -30 -7 -26 -9 25 -1 33 -4 51 -7 40 -12 -54 -76 -244 -92 -275 l-19
-35 4 35 c2 19 13 67 24 105 18 63 40 285 28 285 -3 0 -10 -46 -17 -102z m161
-232 c2 -19 0 -32 -4 -30 -8 5 -12 64 -4 64 2 0 6 -15 8 -34z m58 -144 c0 -4
-9 7 -20 23 -11 17 -20 35 -20 40 0 6 9 -5 20 -23 11 -18 20 -36 20 -40z
m-120 -387 c19 -36 8 -40 -12 -4 -9 16 -14 29 -9 29 4 0 14 -11 21 -25z m-34
-22 c20 -27 16 -38 -6 -18 -20 18 -26 35 -14 35 4 0 13 -8 20 -17z m371 -100
c-3 -10 -5 -2 -5 17 0 19 2 27 5 18 2 -10 2 -26 0 -35z m-366 14 c-10 -9 -11
-8 -5 6 3 10 9 15 12 12 3 -3 0 -11 -7 -18z m196 1 c-3 -8 -6 -5 -6 6 -1 11 2
17 5 13 3 -3 4 -12 1 -19z m160 -120 c-2 -18 -4 -6 -4 27 0 33 2 48 4 33 2
-15 2 -42 0 -60z"/>
<path d="M6328 7733 c7 -3 16 -2 19 1 4 3 -2 6 -13 5 -11 0 -14 -3 -6 -6z"/>
<path d="M5527 7587 l-18 -42 22 21 c11 12 19 31 17 42 -2 17 -7 13 -21 -21z"/>
<path d="M3565 7600 c-3 -6 1 -7 9 -4 18 7 21 14 7 14 -6 0 -13 -4 -16 -10z"/>
<path d="M5751 7514 c0 -11 3 -14 6 -6 3 7 2 16 -1 19 -3 4 -6 -2 -5 -13z"/>
<path d="M6346 7465 c18 -129 54 -213 116 -271 33 -32 128 -87 136 -79 2 2
-14 27 -36 54 -22 28 -59 97 -82 153 -48 115 -48 114 -56 105 -11 -11 41 -140
90 -222 15 -25 12 -23 -18 10 -32 36 -54 75 -134 245 l-22 45 6 -40z"/>
<path d="M6670 7455 c0 -25 44 -106 89 -163 36 -45 139 -132 157 -132 3 0 20
-10 37 -22 18 -12 -6 14 -52 57 -47 44 -117 124 -158 178 -40 54 -73 91 -73
82z"/>
<path d="M5740 7398 c0 -9 -12 -31 -26 -48 -15 -17 -25 -33 -22 -35 2 -2 21 3
41 13 39 18 45 37 22 68 -12 16 -14 17 -15 2z"/>
<path d="M6505 7363 c12 -66 62 -157 118 -215 31 -32 61 -58 68 -58 8 0 8 4 2
13 -83 108 -128 176 -154 231 -17 36 -33 66 -36 66 -3 0 -2 -17 2 -37z"/>
<path d="M6899 7341 c33 -29 71 -46 71 -31 0 10 -43 38 -78 50 -26 10 -26 9 7
-19z"/>
<path d="M6806 7319 c77 -87 163 -158 192 -159 21 0 -4 37 -30 46 -21 6 -21 7
-2 22 18 14 18 14 -5 9 -14 -3 -20 -2 -15 3 5 5 23 11 39 13 17 2 11 3 -11 2
-23 -1 -49 2 -59 8 -14 7 -16 7 -10 -4 5 -8 -4 -3 -18 10 -15 13 -24 28 -21
32 3 5 -2 6 -10 3 -9 -3 -16 -1 -16 5 0 6 -7 11 -15 11 -8 0 -15 5 -15 10 0 6
-5 10 -12 10 -6 0 -3 -10 8 -21z"/>
<path d="M5591 7313 c-1 -19 4 -23 27 -22 22 1 23 2 5 6 -12 2 -24 12 -26 21
-3 12 -5 10 -6 -5z"/>
<path d="M5749 7298 l-24 -19 25 6 c14 4 31 13 38 19 22 21 -12 15 -39 -6z"/>
<path d="M6620 7281 c0 -6 4 -13 10 -16 6 -3 7 1 4 9 -7 18 -14 21 -14 7z"/>
<path d="M6654 7223 c14 -28 116 -133 116 -121 0 4 -6 13 -13 20 -7 7 -32 39
-56 71 -45 60 -72 77 -47 30z"/>
<path d="M5764 7222 c4 -7 14 -12 22 -12 8 0 12 -4 9 -10 -3 -5 -1 -10 4 -10
6 0 11 7 11 15 0 8 -4 15 -9 15 -5 0 -17 3 -27 7 -12 4 -15 3 -10 -5z"/>
<path d="M4150 7210 c0 -5 5 -10 10 -10 6 0 10 5 10 10 0 6 -4 10 -10 10 -5 0
-10 -4 -10 -10z"/>
<path d="M5615 7200 c3 -5 8 -10 11 -10 2 0 4 5 4 10 0 6 -5 10 -11 10 -5 0
-7 -4 -4 -10z"/>
<path d="M5731 7154 c0 -11 3 -14 6 -6 3 7 2 16 -1 19 -3 4 -6 -2 -5 -13z"/>
<path d="M5831 7165 c0 -5 6 -21 14 -35 8 -14 14 -20 14 -15 0 6 -6 21 -14 35
-8 14 -14 21 -14 15z"/>
<path d="M4400 7130 c0 -5 5 -10 11 -10 5 0 7 5 4 10 -3 6 -8 10 -11 10 -2 0
-4 -4 -4 -10z"/>
<path d="M5560 7130 c0 -5 5 -10 11 -10 5 0 7 5 4 10 -3 6 -8 10 -11 10 -2 0
-4 -4 -4 -10z"/>
<path d="M6515 7015 c0 -16 6 -25 16 -25 25 0 30 12 12 32 -22 24 -28 23 -28
-7z"/>
<path d="M5882 7000 c0 -14 2 -19 5 -12 2 6 2 18 0 25 -3 6 -5 1 -5 -13z"/>
<path d="M6744 7005 c11 -8 38 -15 60 -14 l41 1 -55 13 c-69 18 -69 18 -46 0z"/>
<path d="M4501 6974 c0 -11 3 -14 6 -6 3 7 2 16 -1 19 -3 4 -6 -2 -5 -13z"/>
<path d="M4690 6940 c0 -5 5 -10 10 -10 6 0 10 5 10 10 0 6 -4 10 -10 10 -5 0
-10 -4 -10 -10z"/>
<path d="M5966 6934 c-9 -24 -2 -26 12 -4 7 11 8 20 3 20 -5 0 -12 -7 -15 -16z"/>
<path d="M6970 6931 c0 -5 5 -13 10 -16 6 -3 10 -2 10 4 0 5 -4 13 -10 16 -5
3 -10 2 -10 -4z"/>
<path d="M4821 6864 c0 -11 3 -14 6 -6 3 7 2 16 -1 19 -3 4 -6 -2 -5 -13z"/>
<path d="M5517 6799 c7 -7 15 -10 18 -7 3 3 -2 9 -12 12 -14 6 -15 5 -6 -5z"/>
<path d="M5881 6260 c-2 -72 51 -165 119 -211 24 -16 46 -29 49 -29 4 0 -20
27 -51 61 -62 64 -83 99 -104 164 -10 31 -13 35 -13 15z"/>
<path d="M5971 6230 c0 -8 4 -24 9 -35 5 -13 9 -14 9 -5 0 8 -4 24 -9 35 -5
13 -9 14 -9 5z"/>
<path d="M5742 6120 c-19 -86 -16 -186 7 -260 20 -63 39 -103 42 -87 1 4 2 13
3 20 1 6 8 11 15 9 7 -1 19 2 27 8 11 10 11 17 -1 43 -43 102 -68 186 -74 250
l-7 72 -12 -55z"/>
<path d="M5835 6110 c7 -61 49 -195 71 -224 26 -36 26 -8 1 56 -13 35 -33 95
-42 133 -23 90 -38 107 -30 35z"/>
<path d="M5884 6133 c3 -10 9 -44 15 -75 11 -61 35 -118 51 -118 5 0 7 -7 4
-15 -9 -22 20 -44 97 -74 66 -25 189 -111 189 -132 0 -4 -26 7 -58 26 -51 31
-188 75 -231 75 -32 0 -91 -21 -86 -31 4 -5 -3 -9 -15 -9 -12 0 -18 -4 -15
-10 3 -5 0 -8 -7 -6 -7 2 -31 -16 -53 -42 -22 -25 -35 -43 -30 -41 6 3 37 18
70 34 49 24 76 30 145 33 93 4 139 -8 147 -38 5 -20 23 -29 75 -36 18 -2 38
-10 46 -17 12 -12 7 -17 -30 -36 -33 -15 -69 -22 -148 -25 -65 -3 -89 -2 -63
3 24 4 46 11 50 15 9 8 -72 -2 -107 -14 -14 -5 -34 -11 -45 -13 -19 -4 -19 -5
1 -6 45 -2 157 -42 147 -52 -12 -12 -112 -18 -115 -7 -6 16 -206 29 -268 18
-87 -16 -190 -70 -190 -99 0 -6 -14 -26 -31 -44 l-31 -32 43 -5 43 -5 -26 -17
c-14 -9 -38 -20 -52 -24 -14 -3 -26 -11 -26 -16 0 -6 6 -8 14 -5 8 3 43 9 78
13 35 4 78 14 97 22 48 19 134 79 211 146 36 32 70 54 78 51 7 -3 23 -5 35 -5
20 -1 20 -2 4 -11 -9 -6 -26 -7 -37 -4 -11 4 -20 2 -20 -4 0 -6 -6 -11 -13
-11 -7 0 -23 -10 -37 -23 -48 -43 -105 -85 -190 -138 -86 -54 -98 -72 -75
-109 6 -10 2 -12 -13 -8 -29 8 -28 -8 2 -27 22 -15 26 -14 62 6 l39 23 -24
-27 -24 -27 43 -19 c37 -17 45 -17 57 -5 18 17 27 18 16 2 -4 -7 -8 -26 -9
-41 -3 -58 -135 -207 -182 -207 -9 0 -13 -3 -9 -6 3 -4 0 -11 -7 -18 -6 -6
-26 -24 -42 -39 -28 -25 -31 -26 -29 -7 1 11 5 23 10 27 4 5 5 2 1 -4 -4 -7
-3 -13 3 -13 11 0 61 57 61 70 0 5 7 6 17 3 11 -4 14 -3 9 6 -10 15 29 55 44
46 5 -3 7 1 4 9 -3 9 3 19 16 26 12 6 19 17 17 23 -2 7 2 24 9 39 13 24 12 27
-1 22 -8 -4 -15 -10 -15 -15 0 -5 -16 -26 -35 -47 -19 -22 -31 -42 -27 -46 4
-4 3 -6 -3 -5 -5 2 -19 -4 -30 -13 -11 -10 -29 -25 -40 -34 -11 -8 -15 -13 -8
-10 6 4 14 2 18 -3 3 -6 -5 -8 -20 -5 -17 3 -24 0 -23 -8 2 -7 -2 -12 -8 -11
-7 1 -20 -7 -30 -18 -17 -19 -17 -20 2 -13 16 6 17 5 6 -7 -7 -8 -18 -14 -25
-14 -7 0 -13 -6 -13 -12 -1 -7 -2 -17 -3 -22 0 -5 -22 -30 -47 -57 -26 -26
-60 -73 -76 -103 -39 -72 -68 -102 -35 -36 29 59 41 105 28 105 -13 0 -91
-112 -130 -187 -18 -33 -41 -70 -51 -81 -10 -11 -16 -23 -13 -26 4 -3 1 -6 -5
-6 -6 0 -20 -10 -32 -22 -11 -12 -20 -18 -20 -14 0 5 -7 3 -15 -4 -8 -7 -26
-9 -43 -5 -16 3 -49 1 -73 -5 -80 -20 -178 -16 -239 10 -67 28 -163 97 -154
111 3 6 -2 9 -12 7 -12 -2 -18 2 -16 11 3 15 -45 71 -62 71 -5 0 3 -15 19 -32
16 -18 8 -12 -18 13 -64 64 -98 77 -143 56 -19 -10 -43 -17 -54 -17 -10 0 -25
-7 -34 -15 -8 -9 -19 -15 -23 -14 -9 2 -27 -4 -108 -38 -33 -14 -62 -29 -65
-33 -9 -13 -82 -40 -91 -34 -5 3 -8 0 -7 -7 2 -7 -12 -23 -31 -36 -19 -12 -28
-23 -20 -23 11 0 11 -2 -1 -10 -8 -5 -10 -10 -5 -10 6 0 -6 -8 -25 -17 -19
-10 -40 -24 -46 -32 -6 -8 -18 -11 -28 -8 -11 5 -15 3 -10 -5 5 -8 2 -9 -11
-4 -14 5 -16 4 -7 -7 7 -8 8 -18 4 -22 -4 -5 7 0 23 10 17 10 51 32 77 48 63
40 329 107 413 105 33 0 47 -3 30 -5 -46 -7 -147 -34 -169 -45 -17 -9 -2 -15
89 -35 148 -32 195 -44 200 -54 7 -10 -58 -1 -116 17 -55 17 -228 24 -226 9 1
-5 -13 -9 -31 -7 -27 2 -35 -2 -39 -18 -3 -11 -12 -20 -20 -20 -8 0 -29 -15
-48 -33 -19 -18 -47 -40 -62 -48 -15 -7 -50 -34 -77 -59 -26 -25 -54 -44 -62
-44 -7 1 -23 -9 -35 -22 -18 -19 -20 -27 -11 -36 9 -9 12 -9 12 2 0 7 3 11 6
7 3 -3 -1 -18 -10 -34 -33 -59 -57 -128 -63 -185 -6 -56 -5 -58 18 -58 13 0
30 -9 37 -20 12 -20 52 -28 52 -10 0 6 8 10 18 10 16 -1 16 -1 0 -14 -32 -24
-22 -39 22 -32 25 4 40 2 40 -4 0 -5 -9 -10 -20 -10 -11 0 -20 -4 -20 -10 0
-10 -39 -8 -76 4 -11 4 -26 23 -33 42 -7 19 -17 34 -22 34 -12 0 -11 -4 3 -37
17 -36 44 -58 91 -74 20 -7 37 -16 37 -21 0 -5 4 -7 9 -4 5 3 14 -1 21 -9 12
-14 8 -15 -31 -10 -39 5 -41 4 -16 -6 15 -6 25 -14 22 -19 -8 -13 117 19 143
36 17 11 21 21 17 37 -5 18 -4 19 5 5 7 -11 7 -25 0 -42 -7 -20 -6 -24 5 -19
8 3 12 10 8 16 -4 7 0 8 11 4 16 -6 18 -2 14 28 -2 19 -2 35 2 35 3 0 13 14
22 30 26 46 40 38 36 -22 -3 -47 -1 -53 22 -65 31 -16 234 -18 225 -3 -7 12
12 12 40 0 18 -8 18 -9 -5 -10 -24 -2 -24 -2 5 -12 17 -6 41 -20 54 -32 26
-23 111 -149 111 -164 0 -5 7 -15 15 -22 9 -7 14 -19 11 -26 -7 -19 23 -76 36
-68 7 4 8 2 4 -5 -7 -11 44 -111 67 -128 22 -17 77 5 88 35 19 53 32 71 119
159 48 50 95 103 103 120 20 37 51 50 142 58 157 13 164 15 229 64 34 26 101
68 149 94 119 64 274 177 321 232 51 62 196 301 188 311 -4 4 -1 3 7 -1 11 -6
13 -4 8 9 -4 9 -3 14 2 11 16 -9 21 8 47 176 24 152 28 166 60 211 20 26 37
48 40 48 6 0 -12 -42 -40 -90 -14 -25 -26 -60 -26 -77 0 -48 -49 -272 -67
-308 -8 -16 -42 -67 -75 -113 -33 -46 -58 -85 -55 -88 2 -3 53 46 111 108 59
62 104 104 100 94 -5 -14 -4 -17 4 -12 7 4 12 11 12 17 0 5 23 55 51 111 28
57 67 153 87 213 39 119 71 172 59 100 -4 -22 -20 -83 -36 -135 -16 -52 -42
-135 -57 -185 -26 -84 -59 -151 -91 -183 -7 -7 -13 -18 -13 -24 0 -39 -196
-248 -297 -316 -21 -14 -39 -29 -41 -34 -2 -4 -10 -8 -18 -8 -8 0 -14 -3 -14
-8 0 -11 -42 -27 -157 -61 -57 -17 -122 -39 -145 -50 l-43 -19 65 -1 c78 -2
110 -16 52 -23 -36 -5 -117 -37 -110 -43 2 -2 46 0 98 5 52 4 97 6 99 4 5 -4
-97 -49 -134 -58 -16 -4 -38 -15 -47 -23 -10 -9 -18 -12 -18 -7 0 5 -4 3 -8
-4 -5 -7 -35 -17 -68 -23 -32 -6 -94 -22 -136 -35 -85 -26 -123 -31 -112 -12
4 7 3 8 -5 4 -19 -12 -5 -22 56 -41 98 -31 160 -25 318 29 166 58 184 66 236
113 21 19 39 31 39 26 0 -9 -69 -80 -145 -148 -40 -37 -95 -71 -95 -60 0 4
-12 -3 -26 -14 -15 -12 -31 -21 -37 -21 -16 0 -97 -43 -93 -49 2 -3 -12 -7
-32 -9 -21 -1 -50 -6 -67 -11 l-30 -9 28 -1 c32 -1 70 -18 63 -29 -6 -10 -45
-7 -79 7 -16 6 -34 11 -41 11 -6 0 -17 5 -24 12 -7 7 -12 8 -12 2 0 -6 11 -17
25 -24 29 -15 32 -25 10 -34 -8 -3 -15 -1 -15 3 0 15 -32 22 -46 10 -9 -8 -24
-5 -57 9 -31 14 -48 17 -55 10 -6 -6 -15 -7 -22 -3 -8 5 -7 12 4 24 9 10 13
22 9 26 -5 5 0 3 10 -4 26 -21 20 -5 -14 34 -37 42 -81 46 -153 15 -49 -22
-53 -28 -33 -49 10 -11 8 -11 -13 -1 -23 12 -24 12 -11 -3 11 -15 11 -17 -2
-17 -8 0 -17 -12 -20 -27 -47 -238 -77 -315 -138 -364 -41 -32 -136 -72 -150
-63 -5 3 -25 2 -45 -2 -21 -4 -31 -10 -24 -14 8 -5 3 -14 -16 -27 -26 -19 -27
-22 -15 -50 7 -17 26 -43 42 -59 16 -15 29 -34 29 -41 0 -7 4 -13 9 -13 5 0
12 -11 15 -24 3 -14 18 -28 38 -36 18 -7 47 -19 65 -26 40 -18 111 -17 143 1
33 19 49 19 24 0 -15 -11 -16 -15 -4 -16 103 -10 116 -16 188 -85 52 -51 53
-52 45 -95 -10 -64 -9 -117 3 -129 11 -11 92 -37 146 -47 27 -5 136 -123 161
-174 9 -16 22 -25 43 -27 26 -3 38 4 73 44 22 26 41 57 41 69 0 13 7 25 15 29
8 3 15 17 15 32 0 17 4 24 13 21 6 -2 41 -13 75 -23 38 -11 68 -27 74 -37 8
-16 7 -18 -10 -13 -14 5 -39 -10 -93 -55 -85 -71 -96 -86 -79 -102 10 -9 12
-8 7 5 -3 10 -1 20 5 24 6 4 8 3 4 -4 -13 -22 33 -29 217 -35 49 -2 57 -5 58
-22 0 -11 9 26 19 82 14 81 22 107 40 121 l22 18 -46 116 c-66 164 -62 207 31
413 77 169 96 204 105 199 4 -3 5 2 2 10 -3 8 0 24 6 36 7 12 39 93 71 179 51
134 129 291 145 291 2 0 -20 -49 -51 -109 -69 -136 -126 -294 -134 -374 -1 -5
-6 -5 -13 -1 -8 5 -9 2 -5 -11 5 -11 -1 -31 -13 -53 -27 -44 -20 -51 13 -13
13 16 28 27 31 24 3 -4 6 0 6 8 0 8 10 25 23 39 43 47 55 75 87 210 17 74 40
167 51 205 11 39 20 77 20 86 0 9 22 43 48 76 44 55 49 66 70 173 23 116 72
262 119 355 31 62 148 229 217 310 95 112 123 164 111 211 -5 19 -11 24 -26
19 -17 -5 -20 -2 -20 27 -1 18 -6 57 -13 86 l-12 52 -61 -62 c-34 -35 -78 -88
-98 -118 -20 -30 -36 -47 -36 -38 0 15 33 61 130 183 50 63 51 90 5 135 -19
19 -35 40 -35 47 0 7 -5 13 -11 13 -7 0 -8 7 -4 18 4 9 10 24 13 32 3 8 -6 2
-20 -15 -34 -39 -41 -30 -24 28 8 26 12 47 10 47 -7 0 -84 -162 -84 -177 0 -7
-4 -13 -10 -13 -16 0 -12 22 16 96 30 80 27 146 -7 137 -14 -4 -19 0 -19 15 0
12 -4 24 -10 27 -5 3 -10 0 -10 -7 0 -7 -6 -25 -14 -39 -7 -14 -16 -42 -20
-62 -8 -40 -26 -51 -26 -14 0 20 16 86 35 147 l8 25 -22 -20 -22 -19 6 29 c5
23 4 26 -4 15 -6 -8 -11 -24 -11 -35 0 -11 -8 -29 -16 -40 -16 -20 -16 -19 -9
3 4 13 8 34 10 45 1 12 8 35 14 50 6 16 7 26 2 23 -5 -3 -27 -50 -50 -103 -49
-117 -61 -137 -61 -108 0 11 4 36 10 54 12 44 6 51 -15 14 -9 -15 -13 -19 -10
-8 4 11 10 28 12 38 3 9 10 17 15 17 5 0 6 5 3 10 -3 6 -2 10 3 10 5 0 12 8
15 18 2 9 8 26 12 37 11 32 -36 -44 -67 -108 -16 -32 -36 -89 -44 -125 -15
-66 -60 -189 -74 -205 -4 -4 -10 25 -13 65 -3 42 -16 103 -31 142 -15 38 -24
71 -22 73 2 2 12 -16 21 -42 26 -66 36 -65 29 3 -8 77 2 152 21 152 8 0 18
-12 21 -27 4 -16 10 -32 14 -38 20 -27 17 -68 -10 -165 -16 -58 -27 -106 -26
-107 6 -6 36 75 51 137 19 77 26 97 76 210 35 78 37 90 30 135 -5 28 -9 44
-10 36 -1 -10 -4 -11 -15 -2 -9 8 -14 32 -13 74 0 51 5 69 28 103 27 39 74 86
134 132 20 16 23 20 7 12 -38 -18 -160 -139 -194 -191 -17 -27 -33 -49 -34
-49 -2 0 4 19 12 42 8 23 12 48 10 55 -3 7 -1 13 5 13 6 0 7 5 4 10 -3 6 -1
10 4 10 6 0 11 5 11 11 0 6 -7 9 -15 5 -8 -3 -15 -1 -15 4 0 6 4 10 9 10 5 0
13 12 19 28 14 40 90 110 150 138 78 36 121 40 168 16 l39 -20 -28 -11 c-16
-6 -32 -11 -37 -11 -5 0 -11 -4 -15 -10 -3 -5 6 -5 24 1 26 9 39 6 93 -21 82
-42 160 -101 154 -117 -3 -7 1 -13 9 -13 7 0 20 -12 28 -27 7 -16 29 -56 46
-91 20 -38 38 -61 45 -59 7 3 13 0 13 -6 5 -64 26 -171 52 -256 17 -57 31
-113 31 -124 0 -11 3 -17 6 -14 4 4 1 35 -6 69 -16 81 -17 86 -30 128 -6 19
-15 64 -20 100 -6 36 -13 80 -16 98 -6 37 8 42 30 10 9 -12 16 -18 16 -12 0 6
-10 23 -21 38 -12 15 -19 30 -15 33 3 4 6 2 6 -4 0 -6 7 -14 16 -17 15 -6 15
-5 0 16 -9 13 -19 29 -23 37 -21 45 -259 261 -288 261 -8 0 -50 49 -89 104
l-29 41 39 -36 c21 -20 49 -39 61 -42 20 -5 22 -3 11 16 -6 12 -23 34 -37 48
-32 30 -121 92 -121 84 0 -8 -90 45 -114 67 -10 9 -24 14 -29 11 -6 -4 -8 0
-4 10 4 10 2 17 -5 17 -7 0 -6 5 2 15 10 13 15 13 21 3 4 -7 11 -9 15 -6 3 4
-9 16 -27 27 -99 58 -199 136 -233 181 -41 53 -51 61 -42 33z m101 -223 c3 -5
2 -10 -4 -10 -5 0 -13 5 -16 10 -3 6 -2 10 4 10 5 0 13 -4 16 -10z m-440 -670
c3 -5 1 -10 -4 -10 -6 0 -11 5 -11 10 0 6 2 10 4 10 3 0 8 -4 11 -10z m332
-162 c-3 -7 -5 -2 -5 12 0 14 2 19 5 13 2 -7 2 -19 0 -25z m-33 -145 c8 -217
18 -326 27 -311 5 7 9 26 9 42 0 24 2 27 15 16 17 -14 21 -45 5 -35 -15 9 -12
-7 6 -44 10 -20 14 -45 11 -64 -14 -76 -19 -95 -34 -142 -21 -65 -97 -239
-118 -271 -31 -48 -26 -16 11 62 97 209 100 232 71 504 -15 137 -24 400 -13
389 2 -2 7 -68 10 -146z m73 115 c-3 -8 -6 -5 -6 6 -1 11 2 17 5 13 3 -3 4
-12 1 -19z m-16 -52 c12 -13 11 -56 -1 -56 -5 0 -10 8 -10 19 0 10 -2 31 -4
47 -2 16 -1 22 1 14 3 -8 9 -19 14 -24z m-4 -108 c-3 -7 -5 -2 -5 12 0 14 2
19 5 13 2 -7 2 -19 0 -25z m150 -50 c-3 -8 -6 -5 -6 6 -1 11 2 17 5 13 3 -3 4
-12 1 -19z m-657 -32 c0 -8 -7 -16 -15 -20 -12 -4 -13 -2 -2 14 14 24 17 25
17 6z m650 4 c0 -5 -5 -10 -11 -10 -5 0 -7 5 -4 10 3 6 8 10 11 10 2 0 4 -4 4
-10z m167 -162 c-3 -7 -5 -2 -5 12 0 14 2 19 5 13 2 -7 2 -19 0 -25z m-408
-94 c-14 -111 -30 -154 -23 -64 5 65 25 163 31 156 2 -2 -1 -44 -8 -92z m469
61 c-3 -3 -9 2 -12 12 -6 14 -5 15 5 6 7 -7 10 -15 7 -18z m-1135 -130 c-14
-25 -34 -50 -45 -56 -19 -10 -19 -10 -1 18 10 15 26 37 35 47 10 11 18 23 18
28 0 4 4 8 9 8 5 0 -2 -20 -16 -45z m-589 -130 c20 -8 36 -17 36 -19 0 -7 -45
7 -65 21 -26 17 -16 17 29 -2z m343 -11 c-3 -3 -12 -4 -19 -1 -8 3 -5 6 6 6
11 1 17 -2 13 -5z m-520 -79 c53 -11 47 -23 -7 -12 -36 7 -47 13 -43 24 3 8 9
10 12 5 3 -5 21 -13 38 -17z m1353 -58 c-12 -26 -22 -47 -24 -47 -2 0 6 30 18
66 11 36 22 57 24 47 2 -10 -7 -40 -18 -66z m-1290 -35 c44 -21 160 -120 160
-136 0 -5 -28 18 -62 49 -34 32 -77 64 -96 72 -51 21 -141 36 -155 25 -7 -5
-30 -13 -52 -17 -22 -4 -45 -11 -52 -17 -7 -5 -16 -7 -21 -4 -6 3 -15 -1 -22
-9 -7 -8 -9 -15 -4 -15 5 0 -3 -10 -19 -23 -19 -16 -28 -34 -31 -62 -2 -22 -9
-60 -15 -85 -6 -25 -16 -65 -22 -90 -10 -45 -37 -83 -73 -102 -16 -9 -18 -7
-13 14 4 13 9 49 13 79 20 182 101 290 254 340 47 15 162 5 210 -19z m-125 -2
c-3 -5 -10 -10 -16 -10 -5 0 -9 5 -9 10 0 6 7 10 16 10 8 0 12 -4 9 -10z
m1319 -137 c-51 -88 -164 -223 -187 -223 -4 0 -17 -8 -27 -18 -36 -34 -106
-62 -202 -81 -52 -10 -109 -26 -127 -35 -17 -9 -31 -12 -31 -7 0 11 97 47 185
67 39 8 97 30 130 47 74 39 200 163 244 241 18 31 35 56 38 56 3 0 -8 -21 -23
-47z m36 -13 c-6 -11 -13 -20 -16 -20 -2 0 0 9 6 20 6 11 13 20 16 20 2 0 0
-9 -6 -20z m235 -220 c-10 -11 -21 -18 -23 -15 -3 3 3 12 14 20 27 20 30 18 9
-5z m-19 -60 c-11 -19 -26 -41 -33 -48 -7 -7 -13 -17 -13 -21 0 -12 -74 -86
-82 -83 -5 1 -8 -5 -8 -13 0 -9 -16 -31 -35 -51 -19 -19 -35 -31 -35 -27 0 4
-7 -3 -16 -15 -8 -12 -20 -20 -25 -16 -5 3 -8 2 -7 -3 1 -4 -30 -41 -70 -81
-39 -40 -72 -70 -72 -65 0 4 -4 3 -8 -3 -9 -14 -67 -44 -84 -44 -7 1 2 7 20
15 18 8 39 20 46 28 8 7 28 25 44 39 37 31 172 205 172 222 0 6 -11 -2 -25
-17 -14 -15 -29 -27 -32 -27 -4 0 6 13 22 30 15 16 31 28 34 27 8 -2 131 117
131 128 0 19 53 63 74 61 l22 -1 -20 -35z m-836 -80 c0 -5 -5 -10 -11 -10 -6
0 -31 -13 -56 -30 -24 -16 -47 -30 -50 -30 -14 0 34 43 67 61 41 21 50 23 50
9z m-1254 -46 c-9 -8 -21 -12 -28 -8 -8 5 -6 10 8 15 31 12 37 10 20 -7z
m1134 -37 c0 -2 -15 -14 -32 -27 l-33 -23 24 26 c21 23 41 35 41 24z m350
-347 c-8 -5 -22 -9 -30 -9 -10 0 -8 3 5 9 27 12 43 12 25 0z m40 -70 c-8 -5
-19 -10 -25 -10 -5 0 -3 5 5 10 8 5 20 10 25 10 6 0 3 -5 -5 -10z m-172 -22
c-3 -7 -22 -14 -44 -14 -32 -1 -34 -1 -6 3 17 2 32 8 32 14 0 5 5 9 11 9 6 0
9 -6 7 -12z m96 -8 c-17 -11 -46 -23 -65 -27 -33 -6 -33 -6 -15 12 15 15 57
29 101 34 6 0 -4 -8 -21 -19z m481 -153 c-18 -28 -62 -67 -75 -67 -5 0 -21
-11 -35 -24 l-26 -25 47 -7 c74 -11 27 -28 -57 -20 -68 6 -220 -9 -229 -23 -3
-5 -17 -11 -32 -15 -16 -3 -28 -11 -28 -16 0 -12 50 -92 64 -101 13 -10 27
-111 16 -124 -5 -6 -5 -16 0 -25 18 -28 10 -77 -22 -141 -32 -64 -66 -119 -81
-130 -14 -10 -15 -61 -3 -91 7 -16 15 -26 19 -23 4 3 5 2 2 -2 -3 -3 0 -12 6
-20 8 -9 8 -13 0 -13 -14 0 -39 39 -50 77 -10 35 4 75 52 142 62 86 63 93 27
243 -17 73 -37 153 -45 178 -28 96 -28 98 7 120 18 11 64 26 103 35 38 9 87
27 107 41 42 27 48 29 48 13 0 -5 -4 -8 -9 -5 -5 3 -11 0 -14 -7 -3 -9 3 -12
22 -10 73 8 122 22 152 41 44 28 53 28 34 -1z"/>
<path d="M5882 4535 c-1 -46 1 -55 8 -37 6 13 6 38 1 60 -8 35 -9 33 -9 -23z"/>
<path d="M4067 4082 c-10 -10 -17 -24 -17 -31 0 -7 -5 -9 -12 -5 -7 4 -8 3 -4
-5 4 -6 3 -17 -2 -24 -13 -17 -35 -87 -29 -94 7 -7 35 48 41 81 3 15 14 43 25
62 23 38 22 43 -2 16z"/>
<path d="M5685 5950 c6 -82 33 -203 50 -226 12 -16 13 -16 25 6 9 18 10 25 2
28 -11 3 -49 117 -71 212 -10 43 -10 43 -6 -20z"/>
<path d="M5836 5965 c3 -22 15 -53 26 -70 11 -16 17 -21 12 -10 -46 126 -45
123 -38 80z"/>
<path d="M5612 5953 c-32 -81 -49 -203 -43 -320 1 -38 30 -47 32 -10 1 12 3
40 5 62 5 51 20 289 18 293 -1 1 -6 -10 -12 -25z"/>
<path d="M5623 5690 c0 -25 2 -35 4 -22 2 12 2 32 0 45 -2 12 -4 2 -4 -23z"/>
<path d="M5883 5705 c-46 -20 -41 -25 10 -10 23 7 51 15 62 18 14 3 11 5 -10
5 -16 1 -45 -5 -62 -13z"/>
<path d="M5781 5660 c-13 -11 -21 -20 -18 -20 14 0 57 24 57 32 0 13 -13 9
-39 -12z"/>
<path d="M5878 5653 c7 -3 16 -2 19 1 4 3 -2 6 -13 5 -11 0 -14 -3 -6 -6z"/>
<path d="M5825 5630 c3 -5 10 -10 16 -10 5 0 9 5 9 10 0 6 -7 10 -16 10 -8 0
-12 -4 -9 -10z"/>
<path d="M6568 5585 c13 -16 26 -29 28 -27 8 5 0 18 -25 37 l-26 20 23 -30z"/>
<path d="M6640 5496 c0 -2 8 -10 18 -17 15 -13 16 -12 3 4 -13 16 -21 21 -21
13z"/>
<path d="M7075 5280 c3 -5 8 -10 11 -10 2 0 4 5 4 10 0 6 -5 10 -11 10 -5 0
-7 -4 -4 -10z"/>
<path d="M5390 5252 c0 -5 7 -15 15 -22 8 -7 15 -8 15 -2 0 5 -7 15 -15 22 -8
7 -15 8 -15 2z"/>
<path d="M5426 5247 c3 -10 9 -15 12 -12 3 3 0 11 -7 18 -10 9 -11 8 -5 -6z"/>
<path d="M5619 5058 c-30 -40 -31 -41 -5 -18 26 24 52 60 42 60 -2 0 -19 -19
-37 -42z"/>
<path d="M6770 5091 c0 -6 4 -13 10 -16 6 -3 7 1 4 9 -7 18 -14 21 -14 7z"/>
<path d="M5530 5035 c-7 -9 -19 -14 -27 -11 -7 3 -13 -1 -13 -10 0 -8 -4 -13
-9 -10 -5 3 -32 -10 -60 -29 -48 -33 -93 -61 -151 -92 -22 -12 -23 -13 -4 -13
11 0 25 5 32 12 16 16 16 -4 0 -22 -7 -7 -1 -5 13 6 19 13 23 22 15 27 -6 6
-4 6 8 3 10 -4 26 -1 35 5 9 7 -6 -9 -34 -34 -27 -26 -53 -46 -57 -47 -9 0
-139 -58 -158 -70 -8 -6 -26 -15 -40 -20 -74 -31 -218 -125 -283 -184 -10 -9
-43 -28 -75 -43 -31 -14 -65 -33 -75 -41 -9 -8 -34 -18 -55 -22 l-37 -7 54
-16 c73 -23 150 -21 263 4 86 20 97 25 138 68 25 25 61 66 80 90 104 133 258
295 244 257 -5 -14 -4 -17 5 -12 7 5 10 14 7 22 -3 7 8 22 25 34 16 12 26 26
23 32 -4 6 -2 8 4 4 6 -3 37 16 69 42 68 57 100 92 86 92 -6 0 -16 -7 -23 -15z
m-98 -87 c-18 -18 -24 -20 -34 -10 -11 11 -10 12 3 7 9 -3 22 1 29 10 7 8 15
15 18 15 4 0 -4 -10 -16 -22z"/>
<path d="M5318 4803 c7 -3 16 -2 19 1 4 3 -2 6 -13 5 -11 0 -14 -3 -6 -6z"/>
<path d="M6822 4780 c0 -8 4 -26 8 -40 6 -20 8 -21 8 -5 0 11 -3 29 -8 40 -5
12 -8 14 -8 5z"/>
<path d="M5229 4723 c-13 -16 -12 -17 4 -4 9 7 17 15 17 17 0 8 -8 3 -21 -13z"/>
<path d="M6841 4702 c-1 -17 35 -92 60 -122 12 -15 6 2 -14 40 -19 36 -36 72
-40 80 -3 9 -6 10 -6 2z"/>
<path d="M3465 4509 c-66 -35 -125 -85 -125 -107 0 -8 -8 -21 -17 -28 -15 -11
-15 -13 -3 -13 8 0 29 19 45 41 17 23 39 46 50 52 11 6 22 14 25 17 3 4 30 17
60 29 67 28 82 40 50 40 -14 0 -52 -14 -85 -31z"/>
<path d="M3392 4505 c-46 -26 -79 -55 -63 -55 5 0 16 6 23 13 7 7 30 23 51 36
20 12 37 25 37 27 0 6 -2 5 -48 -21z"/>
<path d="M3635 4511 c-44 -9 -86 -20 -92 -24 -7 -5 -18 -5 -24 -1 -6 3 -23 -8
-37 -24 -15 -17 -43 -39 -63 -49 -19 -10 -34 -24 -31 -31 2 -6 -3 -15 -12 -18
-9 -3 -16 -14 -16 -24 0 -10 -6 -23 -14 -29 -7 -6 -16 -25 -20 -41 -3 -18 -12
-30 -21 -30 -8 0 -15 -9 -15 -20 0 -12 -7 -31 -16 -44 -9 -14 -11 -27 -5 -30
5 -3 7 -16 4 -29 -3 -13 -1 -18 4 -11 11 14 43 25 43 15 0 -5 -7 -14 -14 -21
-16 -12 -52 -98 -45 -105 4 -4 94 96 171 190 91 112 226 220 383 306 l70 39
-85 -1 c-47 -1 -121 -9 -165 -18z"/>
<path d="M3295 4430 c-3 -5 -1 -10 4 -10 6 0 11 5 11 10 0 6 -2 10 -4 10 -3 0
-8 -4 -11 -10z"/>
<path d="M3790 4420 c-9 -6 -10 -10 -3 -10 6 0 15 5 18 10 8 12 4 12 -15 0z"/>
<path d="M6573 4293 c-18 -21 -60 -74 -94 -118 -33 -44 -99 -132 -146 -195
-48 -63 -95 -136 -105 -162 -29 -77 -21 -77 17 0 37 73 175 228 205 230 32 2
154 42 187 62 38 22 43 24 43 13 0 -12 -84 -65 -170 -110 -107 -54 -213 -162
-267 -270 -23 -45 -44 -77 -47 -70 -3 7 -2 -1 1 -17 5 -22 3 -27 -7 -21 -10 6
-12 4 -7 -8 3 -8 2 -28 -3 -44 -5 -15 -17 -53 -26 -83 -13 -42 -18 -100 -20
-239 -3 -211 5 -246 82 -354 24 -34 55 -83 69 -109 27 -52 42 -65 56 -51 6 6
3 24 -8 49 -9 21 -15 47 -14 57 1 10 -3 16 -11 15 -8 -2 -14 9 -16 30 -2 17
-7 32 -12 32 -11 0 -40 77 -42 110 -1 14 -5 30 -9 35 -4 6 -15 66 -25 134 -15
107 -16 139 -6 231 17 153 79 348 106 333 6 -3 8 -3 4 2 -10 11 49 90 97 129
81 66 237 138 233 107 -10 -79 54 -30 89 69 19 54 16 72 -25 119 -31 36 -43
43 -73 43 -56 0 -62 9 -33 51 32 48 20 48 -23 0z m-404 -1205 c17 -41 18 -45
20 -63 0 -8 7 -12 16 -9 8 4 15 1 15 -5 0 -6 -5 -11 -11 -11 -5 0 -7 -6 -3
-12 4 -7 0 -6 -9 2 -21 21 -57 91 -57 112 0 28 14 21 29 -14z"/>
<path d="M5904 4035 c-19 -29 -36 -33 -28 -7 4 9 -2 5 -12 -9 -11 -15 -30 -36
-44 -48 -14 -12 -2 -8 27 10 44 26 96 79 78 79 -2 0 -12 -11 -21 -25z"/>
<path d="M3532 3995 c-28 -31 -74 -116 -66 -124 3 -3 12 3 20 14 8 11 19 20
25 20 9 0 59 90 59 107 0 14 -14 8 -38 -17z"/>
<path d="M6341 3645 c-36 -41 -63 -90 -59 -108 1 -6 -3 -22 -10 -34 -22 -40 4
-25 34 20 46 69 48 73 15 39 -32 -34 -39 -30 -20 12 7 14 16 23 22 19 6 -3 7
-1 3 5 -3 6 -2 13 3 17 12 7 54 65 48 65 -3 0 -19 -16 -36 -35z"/>
<path d="M6323 3487 c-44 -46 -83 -104 -83 -122 0 -11 39 30 66 70 15 22 38
55 52 72 36 49 21 40 -35 -20z"/>
<path d="M6753 3475 c0 -22 2 -30 4 -17 2 12 2 30 0 40 -3 9 -5 -1 -4 -23z"/>
<path d="M6328 3423 c-40 -42 -55 -87 -37 -109 6 -8 9 -22 6 -33 -2 -10 -1
-25 4 -32 7 -11 20 -3 53 33 38 41 44 52 39 80 -3 18 -11 45 -19 59 -7 15 -10
29 -7 33 4 3 4 6 2 6 -3 0 -21 -17 -41 -37z"/>
<path d="M6084 3365 c-33 -50 -84 -214 -80 -258 3 -30 2 -34 -3 -12 -6 27 -8
23 -23 -38 -10 -37 -14 -75 -11 -84 4 -10 2 -14 -4 -10 -7 4 -13 -21 -17 -70
-4 -43 -13 -84 -19 -92 -9 -11 -9 -13 0 -8 14 9 19 2 27 -46 5 -28 4 -37 -6
-35 -9 2 -12 -6 -10 -24 1 -16 -1 -28 -7 -28 -5 0 -11 -10 -15 -23 -3 -12 -23
-36 -45 -52 -22 -17 -44 -40 -50 -52 -6 -13 -15 -23 -21 -23 -5 0 -10 -7 -10
-15 0 -18 17 -20 23 -2 2 6 8 0 12 -15 4 -17 14 -28 25 -28 11 0 19 -10 22
-25 4 -20 1 -25 -14 -25 -14 0 -18 5 -14 16 3 8 2 12 -4 9 -6 -3 -10 -1 -10 4
0 6 -7 11 -15 11 -18 0 -20 -16 -4 -26 8 -4 7 -9 -2 -15 -10 -6 -8 -9 9 -9 27
0 29 -16 2 -32 -45 -28 -8 -37 64 -16 23 7 58 30 80 53 l40 40 -22 -37 c-11
-21 -17 -40 -13 -43 12 -7 -15 -82 -44 -120 -14 -17 -25 -43 -25 -57 0 -19 -7
-27 -25 -32 -23 -6 -24 -9 -14 -29 16 -29 28 -37 60 -37 17 0 30 8 39 25 15
28 30 33 30 10 0 -8 7 -15 15 -15 17 0 64 48 65 66 0 6 16 27 35 47 21 22 35
46 35 61 0 14 4 27 9 31 6 3 10 13 11 23 11 199 14 349 7 358 -4 7 -12 63 -18
125 -6 63 -20 152 -31 198 -18 72 -20 105 -16 232 3 82 3 149 2 149 -2 0 -11
-11 -20 -25z"/>
<path d="M6363 3268 c-78 -84 -103 -138 -63 -138 21 0 28 -24 10 -35 -16 -10
-12 -25 6 -25 12 0 15 -6 11 -22 -3 -13 -2 -32 2 -42 6 -16 14 -11 55 39 26
32 45 64 42 72 -3 8 -1 11 4 8 13 -8 13 8 1 21 -8 8 -19 70 -24 137 -2 24 -9
22 -44 -15z"/>
<path d="M5098 3233 c12 -2 30 -2 40 0 9 3 -1 5 -23 4 -22 0 -30 -2 -17 -4z"/>
<path d="M6410 3034 c-23 -31 -47 -72 -52 -93 -5 -20 -17 -42 -26 -50 -15 -12
-14 -13 8 -7 14 3 32 6 40 6 9 0 24 15 35 33 10 17 22 34 25 37 4 3 11 16 15
30 8 25 8 25 -14 6 -19 -17 -21 -17 -21 -3 0 10 5 17 11 17 5 0 7 4 4 10 -3 5
2 21 11 35 33 50 6 35 -36 -21z m5 -74 c-3 -5 -12 -10 -18 -10 -7 0 -6 4 3 10
19 12 23 12 15 0z"/>
<path d="M4501 3036 l-54 -23 52 -18 c28 -11 51 -24 52 -29 2 -19 17 38 18 67
1 32 2 32 -68 3z"/>
<path d="M6438 2925 c-6 -14 -15 -25 -21 -25 -5 0 -6 -7 -3 -16 3 -8 2 -12 -4
-9 -6 3 -10 1 -10 -4 0 -6 9 -16 20 -23 11 -7 20 -18 20 -25 0 -19 27 -16 34
5 3 9 9 23 12 30 5 12 2 12 -17 1 l-23 -12 17 26 c11 17 15 36 11 52 -8 32
-21 32 -36 0z"/>
<path d="M6156 2884 c13 -109 46 -195 109 -282 18 -26 54 -83 80 -127 26 -44
63 -99 82 -123 42 -52 107 -88 136 -75 17 8 13 12 -32 33 -30 15 -51 31 -51
41 0 8 -20 53 -45 99 -34 63 -42 86 -33 92 10 5 8 8 -4 8 -22 0 -34 23 -42 79
-3 24 -14 56 -23 70 l-17 26 -6 -25 c-6 -23 -8 -21 -25 23 -10 27 -45 85 -77
129 l-58 81 6 -49z"/>
<path d="M6471 2804 c-16 -20 -18 -29 -9 -44 9 -14 8 -24 -5 -44 -21 -31 -9
-34 27 -5 22 18 25 27 23 70 -1 27 -5 49 -9 49 -4 0 -16 -12 -27 -26z"/>
<path d="M6525 2692 c-5 -4 -20 -19 -33 -33 -16 -19 -19 -26 -8 -26 8 0 13 4
11 8 -3 4 2 9 9 12 8 3 20 15 26 26 12 23 11 25 -5 13z"/>
<path d="M6197 2615 c6 -52 91 -237 142 -306 55 -76 113 -110 184 -108 l42 2
-46 6 c-53 7 -116 47 -153 96 -27 35 -79 135 -91 173 -3 12 -11 19 -17 16 -7
-4 -8 -2 -4 4 4 6 -3 30 -15 54 -12 23 -27 58 -35 77 l-13 36 6 -50z"/>
<path d="M4190 2634 c0 -18 57 -94 77 -103 13 -6 23 -8 23 -5 0 15 -56 93 -67
94 -7 0 -13 5 -13 10 0 6 -4 10 -10 10 -5 0 -10 -3 -10 -6z"/>
<path d="M5780 2460 c0 -5 5 -10 11 -10 5 0 7 5 4 10 -3 6 -8 10 -11 10 -2 0
-4 -4 -4 -10z"/>
<path d="M6556 2385 c-22 -19 -35 -35 -30 -35 6 0 25 16 44 35 44 45 36 45
-14 0z"/>
<path d="M6211 2254 c0 -11 3 -14 6 -6 3 7 2 16 -1 19 -3 4 -6 -2 -5 -13z"/>
<path d="M6230 2248 c0 -12 7 -18 23 -17 15 0 17 2 7 6 -8 3 -18 11 -22 17 -5
7 -8 4 -8 -6z"/>
<path d="M6628 2143 c7 -3 16 -2 19 1 4 3 -2 6 -13 5 -11 0 -14 -3 -6 -6z"/>
<path d="M6200 2130 c0 -5 8 -7 18 -4 11 4 8 -2 -9 -19 -15 -13 -45 -27 -66
-30 -59 -10 -178 -82 -203 -124 -11 -19 -20 -41 -20 -49 0 -8 -6 -14 -12 -15
-7 0 -4 -4 7 -9 12 -5 14 -9 6 -9 -21 -1 -90 -51 -103 -74 -10 -20 -10 -20 18
0 52 35 58 38 51 19 -5 -14 -3 -15 13 -6 10 5 34 10 52 10 30 -1 29 -2 -20
-19 -47 -16 -81 -42 -82 -63 0 -5 102 -8 228 -8 l227 0 31 38 c46 56 50 65 26
58 -28 -9 -24 9 16 66 17 25 37 59 43 75 17 45 27 113 18 119 -5 3 -9 0 -9 -5
0 -6 -4 -11 -10 -11 -5 0 -10 6 -10 13 0 14 -134 57 -179 57 -17 0 -31 -4 -31
-10z"/>
<path d="M6588 2133 c7 -3 16 -2 19 1 4 3 -2 6 -13 5 -11 0 -14 -3 -6 -6z"/>
<path d="M6633 2098 c-2 -22 -1 -22 19 1 16 18 15 20 -1 18 -9 0 -18 -9 -18
-19z"/>
<path d="M6599 2063 c-13 -16 -12 -17 4 -4 16 13 21 21 13 21 -2 0 -10 -8 -17
-17z"/>
<path d="M5041 1978 c5 -10 14 -18 20 -18 6 0 7 -4 4 -10 -3 -5 -1 -10 6 -10
7 0 22 -8 33 -17 l21 -18 -20 25 c-35 43 -42 49 -50 42 -5 -4 -6 0 -3 9 4 9 1
16 -7 16 -10 0 -11 -5 -4 -19z"/>
<path d="M5795 1759 c-4 -6 -5 -12 -2 -15 2 -3 7 2 10 11 7 17 1 20 -8 4z"/>
</g>
</svg>
